# xmcd
#
# Track frame offsets: 
#        150
#        18610
#        36687
#        62213
#        94898
#        108990
#        114324
#        134262
#        153736
#        165279
#        177548
#        199721
#        223044
#        240276
#        255828
#        269315
#        298821
#        309110
#
# Disc length: 4407 seconds
#
# Revision: 2
# Processed by: cddbd v1.5.2PL0 Copyright (c) Steve Scherf et al.
# Submitted via: ExactAudioCopy v1.0b3
#
DISCID=00113512
DTITLE=Duo Friedrich Sternberg and Ulrich Thiem - zwischen Bach und Blue
DTITLE=s III
DYEAR=2004
DGENRE=Jazz
TTITLE0=Invention 14 (J.S.Bach, U.Thiem)
TTITLE1=All meine Sekunden (U.Thiem)
TTITLE2=Invention 7 (J.S.Bach, U.Thiem)
TTITLE3=Die swingenden 60er Jahre des Prof. Friberg (A.Böttcher)
TTITLE4=Trauermarsch (U.Thiem)
TTITLE5=Invention 7 (J.S.Bach)
TTITLE6=November (U.Thiem)
TTITLE7=Göschwitz (U.Thiem)
TTITLE8="Wach auff, myn hort" (anonym, A.Böttcher)
TTITLE9=Math, für Wolfgang Scheffler (U.Thiem)
TTITLE10=C-Blues (U.Thiem)
TTITLE11=Invention 4 (J.S.Bach, U.Thiem)
TTITLE12=Wintertour (U.Thiem)
TTITLE13=FriSt  für Friedrich Sternberg (U.Thiem)
TTITLE14=Oh, when the saints (Traditional, U.Thiem, F.Bartsch)
TTITLE15=Diner, für Friedrich Zöllner (U.Thiem)
TTITLE16=Invention 9 (J.S.Bach, U.Thiem)
TTITLE17=Waltzer, Geschichten aus der Dresdner Heide (U.Thiem)
EXTD=
EXTT0=
EXTT1=
EXTT2=
EXTT3=
EXTT4=
EXTT5=
EXTT6=
EXTT7=
EXTT8=
EXTT9=
EXTT10=
EXTT11=
EXTT12=
EXTT13=
EXTT14=
EXTT15=
EXTT16=
EXTT17=
PLAYORDER=
